<mxfile host="app.diagrams.net" modified="2021-02-11T13:25:47.110Z" agent="5.0 (Windows NT 10.0; Win64; x64) AppleWebKit/537.36 (KHTML, like Gecko) Chrome/88.0.4324.150 Safari/537.36" etag="SDP2rYus6K0XRpL-8-qT" version="14.3.0" type="github">
  <diagram id="-r_7loNKQe63HdzvDH9P" name="Page-1">
    <mxGraphModel dx="1703" dy="1961" grid="1" gridSize="10" guides="1" tooltips="1" connect="1" arrows="1" fold="1" page="1" pageScale="1" pageWidth="827" pageHeight="1169" math="0" shadow="0">
      <root>
        <mxCell id="0" />
        <mxCell id="1" parent="0" />
        <mxCell id="rVRNtMf_y19ixe9vTFbE-1" value="ROVER" style="whiteSpace=wrap;html=1;aspect=fixed;" parent="1" vertex="1">
          <mxGeometry x="10" y="280" width="80" height="80" as="geometry" />
        </mxCell>
        <mxCell id="rVRNtMf_y19ixe9vTFbE-2" value="" style="endArrow=none;html=1;entryX=0;entryY=0.5;entryDx=0;entryDy=0;exitX=1;exitY=0.5;exitDx=0;exitDy=0;" parent="1" source="rVRNtMf_y19ixe9vTFbE-1" target="rVRNtMf_y19ixe9vTFbE-3" edge="1">
          <mxGeometry width="50" height="50" relative="1" as="geometry">
            <mxPoint x="80" y="310" as="sourcePoint" />
            <mxPoint x="160" y="190" as="targetPoint" />
          </mxGeometry>
        </mxCell>
        <mxCell id="rVRNtMf_y19ixe9vTFbE-3" value="Structure&lt;br&gt;interne" style="whiteSpace=wrap;html=1;aspect=fixed;" parent="1" vertex="1">
          <mxGeometry x="140" y="200" width="80" height="80" as="geometry" />
        </mxCell>
        <mxCell id="zL_rI8aIZWHBaIImfmpk-1" value="" style="endArrow=none;html=1;exitX=1;exitY=0.5;exitDx=0;exitDy=0;" parent="1" source="rVRNtMf_y19ixe9vTFbE-3" target="zL_rI8aIZWHBaIImfmpk-2" edge="1">
          <mxGeometry width="50" height="50" relative="1" as="geometry">
            <mxPoint x="220" y="189.5" as="sourcePoint" />
            <mxPoint x="300" y="189.5" as="targetPoint" />
          </mxGeometry>
        </mxCell>
        <mxCell id="zL_rI8aIZWHBaIImfmpk-2" value="Structure interne basse" style="whiteSpace=wrap;html=1;aspect=fixed;" parent="1" vertex="1">
          <mxGeometry x="280" y="200" width="80" height="80" as="geometry" />
        </mxCell>
        <mxCell id="jXSv2_IPyZ-ztP2nzSzB-3" value="Support composants" style="rounded=0;whiteSpace=wrap;html=1;" parent="1" vertex="1">
          <mxGeometry x="440" y="210" width="120" height="60" as="geometry" />
        </mxCell>
        <mxCell id="vqDQWSO-JDJzaBdUemxl-1" value="" style="endArrow=none;html=1;exitX=1;exitY=0.5;exitDx=0;exitDy=0;entryX=0;entryY=0.5;entryDx=0;entryDy=0;" parent="1" source="zL_rI8aIZWHBaIImfmpk-2" target="jXSv2_IPyZ-ztP2nzSzB-3" edge="1">
          <mxGeometry width="50" height="50" relative="1" as="geometry">
            <mxPoint x="360" y="190" as="sourcePoint" />
            <mxPoint x="440" y="110" as="targetPoint" />
          </mxGeometry>
        </mxCell>
        <mxCell id="vqDQWSO-JDJzaBdUemxl-2" value="&lt;font color=&quot;#ff0000&quot;&gt;Produit final&lt;/font&gt;" style="text;html=1;strokeColor=none;fillColor=none;align=center;verticalAlign=middle;whiteSpace=wrap;rounded=0;" parent="1" vertex="1">
          <mxGeometry x="10" y="-380" width="80" height="20" as="geometry" />
        </mxCell>
        <mxCell id="vqDQWSO-JDJzaBdUemxl-4" value="&lt;font color=&quot;#ff0000&quot;&gt;Système&lt;/font&gt;" style="text;html=1;align=center;verticalAlign=middle;resizable=0;points=[];autosize=1;" parent="1" vertex="1">
          <mxGeometry x="150" y="-380" width="60" height="20" as="geometry" />
        </mxCell>
        <mxCell id="vqDQWSO-JDJzaBdUemxl-5" value="&lt;font color=&quot;#ff0000&quot;&gt;Sous-système&lt;/font&gt;" style="text;html=1;align=center;verticalAlign=middle;resizable=0;points=[];autosize=1;" parent="1" vertex="1">
          <mxGeometry x="290" y="-380" width="90" height="20" as="geometry" />
        </mxCell>
        <mxCell id="vqDQWSO-JDJzaBdUemxl-7" value="" style="endArrow=none;html=1;entryX=0;entryY=0.5;entryDx=0;entryDy=0;exitX=1;exitY=0.5;exitDx=0;exitDy=0;" parent="1" source="zL_rI8aIZWHBaIImfmpk-2" target="vqDQWSO-JDJzaBdUemxl-9" edge="1">
          <mxGeometry width="50" height="50" relative="1" as="geometry">
            <mxPoint x="420" y="270" as="sourcePoint" />
            <mxPoint x="450" y="239.5" as="targetPoint" />
          </mxGeometry>
        </mxCell>
        <mxCell id="vqDQWSO-JDJzaBdUemxl-9" value="Fixation suspension d&#39;angle (x4)&amp;nbsp;" style="whiteSpace=wrap;html=1;" parent="1" vertex="1">
          <mxGeometry x="450" y="550" width="120" height="60" as="geometry" />
        </mxCell>
        <mxCell id="vqDQWSO-JDJzaBdUemxl-10" value="" style="endArrow=none;html=1;entryX=0;entryY=0.5;entryDx=0;entryDy=0;exitX=1;exitY=0.5;exitDx=0;exitDy=0;" parent="1" source="vqDQWSO-JDJzaBdUemxl-9" target="vqDQWSO-JDJzaBdUemxl-11" edge="1">
          <mxGeometry width="50" height="50" relative="1" as="geometry">
            <mxPoint x="560" y="520" as="sourcePoint" />
            <mxPoint x="610" y="400" as="targetPoint" />
            <Array as="points" />
          </mxGeometry>
        </mxCell>
        <mxCell id="vqDQWSO-JDJzaBdUemxl-11" value="Vis (x4) (M6) (75mm sans tete, sinon 80mm)" style="whiteSpace=wrap;html=1;rounded=0;" parent="1" vertex="1">
          <mxGeometry x="630" y="370" width="120" height="60" as="geometry" />
        </mxCell>
        <mxCell id="vqDQWSO-JDJzaBdUemxl-12" value="" style="endArrow=none;html=1;entryX=0;entryY=0.5;entryDx=0;entryDy=0;exitX=1;exitY=0.5;exitDx=0;exitDy=0;" parent="1" source="vqDQWSO-JDJzaBdUemxl-9" target="vqDQWSO-JDJzaBdUemxl-13" edge="1">
          <mxGeometry width="50" height="50" relative="1" as="geometry">
            <mxPoint x="560" y="520" as="sourcePoint" />
            <mxPoint x="600" y="460" as="targetPoint" />
            <Array as="points" />
          </mxGeometry>
        </mxCell>
        <mxCell id="vqDQWSO-JDJzaBdUemxl-13" value="Ecrous (x8) (M6)" style="whiteSpace=wrap;html=1;" parent="1" vertex="1">
          <mxGeometry x="630" y="460" width="120" height="60" as="geometry" />
        </mxCell>
        <mxCell id="vqDQWSO-JDJzaBdUemxl-15" value="Ressort (x8) (petit)" style="whiteSpace=wrap;html=1;" parent="1" vertex="1">
          <mxGeometry x="630" y="550" width="120" height="60" as="geometry" />
        </mxCell>
        <mxCell id="vqDQWSO-JDJzaBdUemxl-16" value="" style="endArrow=none;html=1;exitX=0;exitY=0.5;exitDx=0;exitDy=0;entryX=1;entryY=0.5;entryDx=0;entryDy=0;" parent="1" source="vqDQWSO-JDJzaBdUemxl-15" target="vqDQWSO-JDJzaBdUemxl-9" edge="1">
          <mxGeometry width="50" height="50" relative="1" as="geometry">
            <mxPoint x="560" y="550" as="sourcePoint" />
            <mxPoint x="560" y="470" as="targetPoint" />
          </mxGeometry>
        </mxCell>
        <mxCell id="vqDQWSO-JDJzaBdUemxl-17" value="Support d&#39;angle (x4)&amp;nbsp;" style="whiteSpace=wrap;html=1;" parent="1" vertex="1">
          <mxGeometry x="630" y="640" width="120" height="60" as="geometry" />
        </mxCell>
        <mxCell id="vqDQWSO-JDJzaBdUemxl-19" value="" style="endArrow=none;html=1;entryX=1;entryY=0.5;entryDx=0;entryDy=0;exitX=0;exitY=0.5;exitDx=0;exitDy=0;" parent="1" source="vqDQWSO-JDJzaBdUemxl-17" target="vqDQWSO-JDJzaBdUemxl-9" edge="1">
          <mxGeometry width="50" height="50" relative="1" as="geometry">
            <mxPoint x="530" y="650" as="sourcePoint" />
            <mxPoint x="580" y="600" as="targetPoint" />
          </mxGeometry>
        </mxCell>
        <mxCell id="vqDQWSO-JDJzaBdUemxl-20" value="Scratch" style="whiteSpace=wrap;html=1;" parent="1" vertex="1">
          <mxGeometry x="630" y="150" width="120" height="60" as="geometry" />
        </mxCell>
        <mxCell id="vqDQWSO-JDJzaBdUemxl-22" value="Plaque en bois" style="whiteSpace=wrap;html=1;" parent="1" vertex="1">
          <mxGeometry x="630" y="250" width="120" height="60" as="geometry" />
        </mxCell>
        <mxCell id="vqDQWSO-JDJzaBdUemxl-23" value="" style="endArrow=none;html=1;entryX=0;entryY=0.5;entryDx=0;entryDy=0;exitX=1;exitY=0.5;exitDx=0;exitDy=0;" parent="1" source="jXSv2_IPyZ-ztP2nzSzB-3" target="vqDQWSO-JDJzaBdUemxl-20" edge="1">
          <mxGeometry width="50" height="50" relative="1" as="geometry">
            <mxPoint x="570" y="240" as="sourcePoint" />
            <mxPoint x="610" y="190" as="targetPoint" />
          </mxGeometry>
        </mxCell>
        <mxCell id="vqDQWSO-JDJzaBdUemxl-24" value="" style="endArrow=none;html=1;entryX=0;entryY=0.5;entryDx=0;entryDy=0;exitX=1;exitY=0.5;exitDx=0;exitDy=0;" parent="1" source="jXSv2_IPyZ-ztP2nzSzB-3" target="vqDQWSO-JDJzaBdUemxl-22" edge="1">
          <mxGeometry width="50" height="50" relative="1" as="geometry">
            <mxPoint x="590" y="240" as="sourcePoint" />
            <mxPoint x="450" y="320" as="targetPoint" />
          </mxGeometry>
        </mxCell>
        <mxCell id="vqDQWSO-JDJzaBdUemxl-32" value="Batteries:&lt;br&gt;3 x (109mm x 34mm x 28mm)" style="text;html=1;align=center;verticalAlign=middle;resizable=0;points=[];autosize=1;" parent="1" vertex="1">
          <mxGeometry y="490" width="170" height="30" as="geometry" />
        </mxCell>
        <mxCell id="jHONusKLtYtE3Wcou1TV-1" value="Ensemble" style="text;html=1;align=center;verticalAlign=middle;resizable=0;points=[];autosize=1;fontColor=#FF0000;" parent="1" vertex="1">
          <mxGeometry x="465" y="-380" width="70" height="20" as="geometry" />
        </mxCell>
        <mxCell id="jHONusKLtYtE3Wcou1TV-2" value="Pièce" style="text;html=1;align=center;verticalAlign=middle;resizable=0;points=[];autosize=1;fontColor=#FF0000;" parent="1" vertex="1">
          <mxGeometry x="665" y="-380" width="50" height="20" as="geometry" />
        </mxCell>
        <mxCell id="UYZ_LNtOyXUvJbUCEBqO-3" value="Rondelles d&#39;appuis (x8)" style="whiteSpace=wrap;html=1;" parent="1" vertex="1">
          <mxGeometry x="630" y="730" width="120" height="60" as="geometry" />
        </mxCell>
        <mxCell id="UYZ_LNtOyXUvJbUCEBqO-4" value="" style="endArrow=none;html=1;entryX=1;entryY=0.5;entryDx=0;entryDy=0;exitX=0;exitY=0.5;exitDx=0;exitDy=0;" parent="1" source="UYZ_LNtOyXUvJbUCEBqO-3" target="vqDQWSO-JDJzaBdUemxl-9" edge="1">
          <mxGeometry width="50" height="50" relative="1" as="geometry">
            <mxPoint x="530" y="695" as="sourcePoint" />
            <mxPoint x="580" y="645" as="targetPoint" />
          </mxGeometry>
        </mxCell>
        <mxCell id="X4MiwaMOldAr7x9i5y2H-34" value="Fixation suspension de longueur&amp;nbsp; (x2)&amp;nbsp;" style="whiteSpace=wrap;html=1;" vertex="1" parent="1">
          <mxGeometry x="450" y="-160" width="120" height="60" as="geometry" />
        </mxCell>
        <mxCell id="X4MiwaMOldAr7x9i5y2H-35" value="" style="endArrow=none;html=1;entryX=0;entryY=0.5;entryDx=0;entryDy=0;exitX=1;exitY=0.5;exitDx=0;exitDy=0;" edge="1" parent="1" source="X4MiwaMOldAr7x9i5y2H-34" target="X4MiwaMOldAr7x9i5y2H-36">
          <mxGeometry width="50" height="50" relative="1" as="geometry">
            <mxPoint x="560" y="-190" as="sourcePoint" />
            <mxPoint x="610" y="-310" as="targetPoint" />
            <Array as="points" />
          </mxGeometry>
        </mxCell>
        <mxCell id="X4MiwaMOldAr7x9i5y2H-36" value="Vis (x2) (M6) (75mm sans tete, sinon 80mm)" style="whiteSpace=wrap;html=1;rounded=0;" vertex="1" parent="1">
          <mxGeometry x="630" y="-340" width="120" height="60" as="geometry" />
        </mxCell>
        <mxCell id="X4MiwaMOldAr7x9i5y2H-37" value="" style="endArrow=none;html=1;entryX=0;entryY=0.5;entryDx=0;entryDy=0;exitX=1;exitY=0.5;exitDx=0;exitDy=0;" edge="1" parent="1" source="X4MiwaMOldAr7x9i5y2H-34" target="X4MiwaMOldAr7x9i5y2H-38">
          <mxGeometry width="50" height="50" relative="1" as="geometry">
            <mxPoint x="560" y="-190" as="sourcePoint" />
            <mxPoint x="600" y="-250" as="targetPoint" />
            <Array as="points" />
          </mxGeometry>
        </mxCell>
        <mxCell id="X4MiwaMOldAr7x9i5y2H-38" value="Ecrous (x4) (M6)" style="whiteSpace=wrap;html=1;" vertex="1" parent="1">
          <mxGeometry x="630" y="-250" width="120" height="60" as="geometry" />
        </mxCell>
        <mxCell id="X4MiwaMOldAr7x9i5y2H-39" value="Ressort (x4) (petit)" style="whiteSpace=wrap;html=1;" vertex="1" parent="1">
          <mxGeometry x="630" y="-160" width="120" height="60" as="geometry" />
        </mxCell>
        <mxCell id="X4MiwaMOldAr7x9i5y2H-40" value="" style="endArrow=none;html=1;exitX=0;exitY=0.5;exitDx=0;exitDy=0;entryX=1;entryY=0.5;entryDx=0;entryDy=0;" edge="1" parent="1" source="X4MiwaMOldAr7x9i5y2H-39" target="X4MiwaMOldAr7x9i5y2H-34">
          <mxGeometry width="50" height="50" relative="1" as="geometry">
            <mxPoint x="560" y="-160" as="sourcePoint" />
            <mxPoint x="560" y="-240" as="targetPoint" />
          </mxGeometry>
        </mxCell>
        <mxCell id="X4MiwaMOldAr7x9i5y2H-41" value="Support de longueur (x2)&amp;nbsp;" style="whiteSpace=wrap;html=1;" vertex="1" parent="1">
          <mxGeometry x="630" y="-70" width="120" height="60" as="geometry" />
        </mxCell>
        <mxCell id="X4MiwaMOldAr7x9i5y2H-42" value="" style="endArrow=none;html=1;entryX=1;entryY=0.5;entryDx=0;entryDy=0;exitX=0;exitY=0.5;exitDx=0;exitDy=0;" edge="1" parent="1" source="X4MiwaMOldAr7x9i5y2H-41" target="X4MiwaMOldAr7x9i5y2H-34">
          <mxGeometry width="50" height="50" relative="1" as="geometry">
            <mxPoint x="530" y="-60" as="sourcePoint" />
            <mxPoint x="580" y="-110" as="targetPoint" />
          </mxGeometry>
        </mxCell>
        <mxCell id="X4MiwaMOldAr7x9i5y2H-43" value="Rondelles d&#39;appuis (x4)" style="whiteSpace=wrap;html=1;" vertex="1" parent="1">
          <mxGeometry x="630" y="20" width="120" height="60" as="geometry" />
        </mxCell>
        <mxCell id="X4MiwaMOldAr7x9i5y2H-44" value="" style="endArrow=none;html=1;entryX=1;entryY=0.5;entryDx=0;entryDy=0;exitX=0;exitY=0.5;exitDx=0;exitDy=0;" edge="1" parent="1" source="X4MiwaMOldAr7x9i5y2H-43" target="X4MiwaMOldAr7x9i5y2H-34">
          <mxGeometry width="50" height="50" relative="1" as="geometry">
            <mxPoint x="530" y="-15" as="sourcePoint" />
            <mxPoint x="580" y="-65" as="targetPoint" />
          </mxGeometry>
        </mxCell>
        <mxCell id="X4MiwaMOldAr7x9i5y2H-45" value="" style="endArrow=none;html=1;exitX=1;exitY=0.5;exitDx=0;exitDy=0;entryX=0;entryY=0.5;entryDx=0;entryDy=0;" edge="1" parent="1" source="zL_rI8aIZWHBaIImfmpk-2" target="X4MiwaMOldAr7x9i5y2H-34">
          <mxGeometry width="50" height="50" relative="1" as="geometry">
            <mxPoint x="440" y="50" as="sourcePoint" />
            <mxPoint x="490" as="targetPoint" />
          </mxGeometry>
        </mxCell>
      </root>
    </mxGraphModel>
  </diagram>
</mxfile>
